# xmcd
#
# Track frame offsets: 
#        150
#        22318
#        36685
#        50203
#        66040
#        82760
#        103245
#        118293
#        133630
#        149378
#        158185
#        175570
#        187893
#        215208
#        230498
#        245560
#        258695
#        271685
#        291050
#        308323
#
# Disc length: 4423 seconds
#
# Revision: 3
# Processed by: cddbd v1.5.1PL0 Copyright (c) Steve Scherf et al.
# Submitted via: ExactAudioCopy v0.90b4
#
DISCID=2f114514
DTITLE=Mathilde Santing - So Far So Good
DYEAR=1992
DGENRE=Pop
TTITLE0=A Hazy Shade Of Winter
TTITLE1=Behind A Painted Smile
TTITLE2=Wanting Things
TTITLE3=It Wouldn't Have Made Any Difference
TTITLE4=It's Not Unusual
TTITLE5=Beauty Of The Ritual
TTITLE6=Only A Motion
TTITLE7=It May Not Always Be So
TTITLE8=Bad Influence
TTITLE9=You Took Advantage Of Me
TTITLE10=Our Days
TTITLE11=Is There Any Way Out Of This Dream
TTITLE12=We Could Send Letters
TTITLE13=Town Without Pity
TTITLE14=Take Care Of Business
TTITLE15=Close Watch
TTITLE16=I've Grown Accustomed To Her Face
TTITLE17=Twenty Tambourines
TTITLE18=Broken Bicycles
TTITLE19=Too Much
EXTD=
EXTT0=
EXTT1=
EXTT2=
EXTT3=
EXTT4=
EXTT5=
EXTT6=
EXTT7=
EXTT8=
EXTT9=
EXTT10=
EXTT11=
EXTT12=
EXTT13=
EXTT14=
EXTT15=
EXTT16=
EXTT17=
EXTT18=
EXTT19=
PLAYORDER=
